<?xml version="1.0" encoding="UTF-8" standalone="no"?>
<!DOCTYPE svg PUBLIC "-//W3C//DTD SVG 1.1//EN" "http://www.w3.org/Graphics/SVG/1.1/DTD/svg11.dtd">
<svg width="100%" height="100%" viewBox="0 0 3410 1478" version="1.1" xmlns="http://www.w3.org/2000/svg" xmlns:xlink="http://www.w3.org/1999/xlink" xml:space="preserve" xmlns:serif="http://www.serif.com/" style="fill-rule:evenodd;clip-rule:evenodd;stroke-linejoin:round;stroke-miterlimit:2;">
    <g transform="matrix(1,0,0,1,395.930052,-943.404508)">
        <g transform="matrix(1.387176,0,0,1.387176,-548.735144,1354.70931)">
            <path d="M222.5,81.492C222.71,81.817 222.103,82.313 222.314,82.639C222.63,83.128 222.724,82.984 258.5,83.112C273.454,83.165 273.94,83.657 275.5,81.499C278.118,82.455 277.754,83.438 277.753,119.502C277.749,200.323 277.509,200.608 278.456,201.546C278.509,201.598 278.51,202.439 345.5,202.314C470.195,202.082 470.495,202.279 471.338,201.38C471.73,200.961 471.474,200.871 473.192,194.447C474.514,197.423 474.096,197.524 474.298,197.713C475.835,199.156 476.896,187.841 477.689,193.5C478.013,195.811 480.122,196.554 480.186,194.5C480.224,193.303 480.633,180.335 480.159,179.532C479.362,178.181 479.057,179.082 477.474,179.49C480.227,171.814 480.086,171.86 483.448,164.478C484.185,167.784 484.2,167.898 484.486,167.896C484.856,167.892 487.639,167.712 484.049,163.292C484.314,163.298 487.35,163.372 487.35,163.372C487.863,162.788 488.127,162.018 488.616,161.414C489.677,160.105 492.22,164.365 491.918,161.544C491.797,160.418 489.774,158.683 492.469,157.794C494.673,157.068 494.165,156.104 496.468,155.573C496.822,155.492 497.97,156.62 498.965,154.486C499.15,154.089 499.512,153.792 499.697,153.395C500.748,155.316 504.891,162.893 514.933,176.127C513.495,179.217 512.43,179.651 514.911,182.082C515.725,182.88 518.839,185.931 523.158,193.698C523.662,194.604 523.427,194.695 528.442,205.526C529.122,206.994 534.013,228.378 530.474,235.498C528.89,238.685 531.373,239.972 531.507,240.5C531.728,241.367 531.265,241.332 533.529,251.496C533.584,251.744 533.805,251.607 534.545,254.5C534.865,255.753 535.01,255.621 535.5,256.805C536.247,256.013 536.995,255.221 537.742,254.429C537.885,254.993 537.956,254.957 539.742,261.417C541.56,267.013 541.489,266.976 543.906,272.29C539.898,276.648 543.424,276.943 543.694,276.714C544.555,275.979 542.934,275.513 543.774,274.706C544.062,274.429 544.62,274.593 544.908,274.315L546.958,278.232C545.209,278.68 545.309,278.673 543.73,279.52C547.879,285.949 546.474,286.816 551.735,292.274C554.677,295.327 555.819,292.278 555.919,292.229C557.918,294.779 557.835,294.688 559.865,297.119C557.983,298.022 556.445,297.639 557.662,299.411C560.358,303.339 560.963,304.965 564.838,302.167C565.294,302.589 566.89,304.062 570.682,307.286C570.225,307.298 569.97,307.992 569.513,308.003C568.096,308.038 566.811,307.24 567.646,308.42C569.977,311.709 570.692,312.459 573.881,310.037C577.758,312.773 580.42,316.053 591.713,321.008C589.875,324.28 587.815,326.097 591.5,326.272C601.536,326.75 621.995,335.345 607.425,328.363C607.277,328.292 607.355,328.228 606.489,326.542C607.58,326.78 607.446,326.892 608.599,327.143C608.997,327.23 608.969,327.216 613.593,328.126C606.134,331.934 616.997,332.033 616.929,330.57C616.922,330.42 616.894,330.435 616.454,328.746L620.524,329.294C619.78,330.428 618.082,332.658 622.5,332.378C624.315,332.263 623.93,331.56 623.462,329.777C629.977,330.282 629.915,330.154 636.482,330.087L637.541,331.296C644.778,335.267 645.417,330.341 653.523,332.023C657.236,332.793 656.728,329.643 660.503,330.07C662.033,330.244 663.039,327.393 670.5,326.247C675.517,325.476 675.78,325.876 675.834,325.448C676.333,321.53 676.819,321.573 676.638,321.286C676.528,321.111 676.467,321.201 674.324,320.137C680.485,316.912 680.516,317.084 686.167,313.088C687.807,314.303 687.684,315.397 689.429,314.356C691.969,312.838 692.856,315.967 694.902,313.718C696.365,312.109 696.571,313.734 696.619,313.605C696.865,312.948 696.309,312.222 696.326,311.521C696.347,310.672 698.613,310.83 698.775,309.499C699.136,306.544 698.858,306.545 697.18,304.114L698.261,303.206C701.392,305.486 701.617,304.846 705.468,304.279C707.668,303.956 709.264,304.672 708.317,302.607C707.558,300.95 706.771,300.975 707.623,299.429C709.431,296.145 710.73,295.788 708.218,292.312C708.973,291.37 709.729,290.428 710.484,289.486C710.728,290.105 710.629,290.825 710.873,291.444C711.235,292.361 712.355,292.275 712.5,292.264C715.586,292.027 715.388,293.088 718.5,293.103C721.869,293.118 722.099,294.084 724.846,292.216C732.144,301.562 732.419,301.245 738.739,311.36C738.505,311.316 733.034,310.299 736.583,313.416C736.782,313.59 736.822,313.403 739.882,313.241C738.123,315.524 738.457,315.656 738.816,318.5C739.146,321.109 741.476,319.86 741.661,322.478C741.78,324.148 741.698,325.828 741.788,327.5C741.877,329.16 742.629,328.382 744.289,328.264C744.56,329.009 744.831,329.755 745.102,330.5C750.296,337.147 746.169,342.682 745.546,343.518C745.22,343.956 740.009,349.28 739.431,349.35C738.989,349.404 738.904,348.414 738.459,348.432C736.765,348.498 732.609,351.681 732.608,351.683C732.228,352.449 734.127,353.476 731.151,356.203C729.669,357.561 720.204,366.233 710.243,370.138C710.522,371.99 710.437,371.947 711.526,373.552C704.19,377.256 704.52,377.82 689.337,384.096C688.579,380.363 687.105,381.871 685.518,382.371C684.876,382.573 678.522,384.573 677.529,384.981C675.415,385.851 676.552,386.738 678.591,387.788C663.946,391.566 663.957,391.199 654.537,392.846C654.111,392.664 653.586,391.638 650.5,392.094C648.844,392.339 649.644,393.243 649.492,393.446L644.546,393.925L643.46,392.61C642.973,392.314 639.458,390.173 636.521,390.983C629.798,392.835 618.826,388.633 612.563,391.679L611.443,392.961C598.738,391.043 598.624,391.755 586.371,387.912C587.602,385.982 588.815,384.958 586.5,384.655C579.61,383.753 574.615,377.831 576.463,384.604C573.695,383.515 556.913,376.915 543.25,367.896C543.353,365.031 544.197,364.126 542.498,364.169C542.498,364.169 540.426,365.77 540.246,365.909C538.284,364.501 536.322,363.093 534.361,361.686C537.408,361.569 537.458,361.821 537.646,361.636C537.902,361.385 538.582,356.294 533.242,360.823C529.139,357.585 504.022,337.767 490.109,311.747C491.744,309.847 492.237,310.101 492.226,308.5C492.189,303.637 489.503,310.299 489.399,310.558L487.619,307.44C489.986,306.51 490.08,306.637 490.17,306.438C490.466,305.787 488.33,301.911 488.125,301.539C487.025,299.543 486.191,300.453 485.322,302.578C478.786,288.896 478.445,286.674 477.616,284.459C478.641,284.927 478.667,284.729 479.587,285.36C481.341,286.563 482.556,284.246 479.39,278.547C478.142,276.3 481.962,273.663 478.503,273.929C476.758,274.063 476.907,270.483 476.018,268.556C475.377,267.167 475.041,268.393 473.246,269.561C472.033,265.042 472.333,264.944 471.309,263.747C471.336,263.344 471.785,263.048 471.812,262.646C471.912,261.176 453.555,261.996 453.326,262.382C453.107,262.751 453.719,263.286 453.501,263.654C430.834,263.649 408.167,263.643 385.5,263.638C384.267,261.731 384.046,261.894 381.5,261.892C380.601,261.891 370.54,261.883 370.266,262.353C370.047,262.731 370.72,263.265 370.5,263.643C364.832,263.64 359.164,263.638 353.496,263.635C351.285,260.193 350.5,261.326 346.5,261.91C344.71,262.171 345.529,263.585 345.501,263.633C327.5,263.631 309.499,263.629 291.498,263.627C290.73,262.48 290.812,261.594 283.5,261.863C281.197,261.948 282.503,263.547 282.502,263.632C279.009,263.913 277.61,263.07 277.616,266.501C277.64,308.168 277.664,349.834 277.688,391.501C276.061,390.456 275.9,389.345 274.925,390.586C274.925,390.586 273.731,392.565 273.627,392.737C271.658,392.953 271.671,392.966 271.5,392.97C246.207,393.613 246.309,392.905 221.008,393.093C220.685,392.417 217.225,389.398 212.139,392.6C212.139,392.516 212.139,392.6 212.259,123.494C216.233,121.144 214.13,120.061 214.136,115.5C214.15,104.256 214.376,93.709 213.667,93.303C213.293,93.088 212.763,93.717 212.389,93.502L212.365,88.504C215.851,89.129 214.797,87.078 216.447,85.444C218.036,83.872 218.276,84.485 220.5,84.247C225.411,83.72 218.339,82.849 218.119,82.822L218.499,81.485L222.5,81.492Z" style="fill:white;"/>
            <path d="M519.553,113.561C596.696,39.888 729.46,58.17 778.985,161.252C782.509,168.588 785.152,172.058 779.493,172.009C753.869,171.783 711.664,172.578 709.427,171.657C709.239,171.58 674.855,123.445 616.556,133.803C560.271,143.802 549.156,188.313 544.966,182.193C536.258,169.474 524.448,156.298 516.127,140.705C509.274,127.865 506.192,124.652 519.553,113.561Z" style="fill:white;"/>
            <path d="M631.726,205.508C631.837,204.207 631.343,202.455 634.498,202.393C645.31,202.181 747.659,202.297 757.5,202.309C789.355,202.345 791.914,201.41 792.667,204.456C799.114,230.529 791.998,261.736 790.893,266.584C789.88,271.026 783.386,299.506 769.196,319.248C766.621,322.833 763.601,312.887 759.334,305.576C731.098,257.2 711.331,263.603 707.5,263.607C633.122,263.696 632.583,263.639 631.922,262.351C631.385,261.305 631.698,210.055 631.726,205.508Z" style="fill:white;"/>
            <path d="M462.931,304.333C469.871,319.039 469.196,319.346 469.181,335.496C469.128,392.282 469.842,393.44 467.434,394.202C466.96,394.352 441.676,394.068 409.498,394.304C405.579,394.333 403.966,395.356 403.891,391.492C402.893,339.944 404.534,340.058 403.885,288.475C403.804,281.972 407.005,284.345 413.5,284.335C453.256,284.277 454.849,283.456 456.089,286.68C461.427,300.557 461.358,300.476 462.931,304.333Z" style="fill:white;"/>
            <path d="M455.913,177.637C453.429,182.627 451.456,181.04 438.5,181.041C405.149,181.043 404.621,180.91 404.207,179.625C404.169,179.507 402.797,83.464 404.833,81.97C407.133,80.281 407.493,81.565 440.5,81.476C467.697,81.403 468.732,81.299 469.103,83.558C469.354,85.083 469.39,144.688 469.153,145.405C467.234,151.218 463.311,155.721 455.913,177.637Z" style="fill:white;"/>
            <path d="M1023.999,1.5C1009.618,0.712 7.445,0.73 0,1.5C0.429,1.243 -0.429,0.257 -0,0L996.5,0C1021.826,-0 1021.855,-0.495 1023.999,0C1024.486,0.112 1023.512,1.388 1023.999,1.5Z" style="fill:white;"/>
            <path d="M1023.999,441.5C1023.571,441.757 1024.427,442.742 1023.999,442.999L62.5,442.999C4.932,442.999 4.872,444.123 0,442.999C-0.487,442.887 0.487,441.612 0,441.5C10.884,442.275 1009.681,442.284 1023.999,441.5Z" style="fill:white;"/>
            <path d="M534.941,235.475C534.029,237.247 532.412,238.798 535.552,241.496C536.509,248.045 536.468,247.948 537.742,254.429C536.995,255.221 536.247,256.013 535.5,256.805C535.01,255.621 534.865,255.753 534.545,254.5C533.805,251.607 533.584,251.744 533.529,251.496C531.265,241.332 531.728,241.367 531.507,240.5C531.373,239.972 528.89,238.685 530.474,235.498C534.013,228.378 529.122,206.994 528.442,205.526C523.427,194.695 523.662,194.604 523.158,193.698C518.839,185.931 515.725,182.88 514.911,182.082C512.43,179.651 513.495,179.217 514.933,176.127C533.711,202.397 533.677,203.359 534.941,235.475Z" style="fill:white;"/>
            <path d="M740.664,314.388C741.06,315.019 741.457,315.65 741.854,316.282L743.692,319.394C744.041,320.055 744.39,320.715 744.739,321.375C752.342,336.985 755.613,340.111 742.334,351.298C720.491,369.7 719.695,368.581 711.526,373.552C710.437,371.947 710.522,371.99 710.243,370.138C720.204,366.233 729.669,357.561 731.151,356.203C734.127,353.476 732.228,352.449 732.608,351.683C732.609,351.681 736.765,348.498 738.459,348.432C738.904,348.414 738.989,349.404 739.431,349.35C740.009,349.28 745.22,343.956 745.546,343.518C746.169,342.682 750.296,337.147 745.102,330.5C744.831,329.755 744.56,329.009 744.289,328.264C742.629,328.382 741.877,329.16 741.788,327.5C741.698,325.828 741.78,324.148 741.661,322.478C741.476,319.86 739.146,321.109 738.816,318.5C738.457,315.656 738.123,315.524 739.882,313.241L740.664,314.388Z" style="fill:white;"/>
            <path d="M674.324,320.137C676.467,321.201 676.528,321.111 676.638,321.286C676.819,321.573 676.333,321.53 675.834,325.448C675.78,325.876 675.517,325.476 670.5,326.247C663.039,327.393 662.033,330.244 660.503,330.07C656.728,329.643 657.236,332.793 653.523,332.023C645.417,330.341 644.778,335.267 637.541,331.296C641.299,330.912 641.52,331.599 644.466,329.286C659.923,326.563 659.843,326.301 674.324,320.137Z" style="fill:white;"/>
            <path d="M499.697,153.395C499.512,153.792 499.15,154.089 498.965,154.486C497.97,156.62 496.822,155.492 496.468,155.573C494.165,156.104 494.673,157.068 492.469,157.794C489.774,158.683 491.797,160.418 491.918,161.544C492.22,164.365 489.677,160.105 488.616,161.414C488.127,162.018 487.863,162.788 487.35,163.372C487.35,163.372 484.314,163.298 484.049,163.292C484.798,161.805 492.383,146.734 493.872,144.947C494.973,143.625 497.996,150.334 499.697,153.395Z" style="fill:white;"/>
            <path d="M275.5,81.499C273.94,83.657 273.454,83.165 258.5,83.112C222.724,82.984 222.63,83.128 222.314,82.639C222.103,82.313 222.71,81.817 222.5,81.492C226.465,81.488 248.26,81.52 250.5,81.523C265.756,81.546 272.449,81.506 275.5,81.499Z" style="fill:white;"/>
            <path d="M477.474,179.49C479.057,179.082 479.362,178.181 480.159,179.532C480.633,180.335 480.224,193.303 480.186,194.5C480.122,196.554 478.013,195.811 477.689,193.5C476.896,187.841 475.835,199.156 474.298,197.713C474.096,197.524 474.514,197.423 473.192,194.447L473.341,193.469C473.473,193.314 474.998,191.534 474.998,191.534C474.917,191.077 474.266,190.861 474.186,190.405C474.318,189.922 474.317,189.943 477.474,179.49Z" style="fill:white;"/>
            <path d="M212.552,393.458C216.81,392.45 216.748,393.03 221.008,393.093C246.309,392.905 246.207,393.613 271.5,392.97C271.671,392.966 271.658,392.953 273.627,392.737C274.144,392.878 274.661,393.019 275.179,393.159L275.347,392.757L276.753,393.906C276.056,394.082 216.484,395.012 212.552,393.458Z" style="fill:white;"/>
            <path d="M724.846,292.216C722.099,294.084 721.869,293.118 718.5,293.103C715.388,293.088 715.586,292.027 712.5,292.264C712.355,292.275 711.235,292.361 710.873,291.444C710.629,290.825 710.728,290.105 710.484,289.486C713.585,286.279 713.137,283.962 716.428,285.641C720.566,287.752 724.255,291.599 724.846,292.216Z" style="fill:white;"/>
            <path d="M708.218,292.312C710.73,295.788 709.431,296.145 707.623,299.429C706.771,300.975 707.558,300.95 708.317,302.607C709.264,304.672 707.668,303.956 705.468,304.279C701.617,304.846 701.392,305.486 698.261,303.206C702.387,299.375 702.241,299.377 706.133,295.186C706.561,294.605 706.989,294.024 707.418,293.444L708.218,292.312Z" style="fill:white;"/>
            <path d="M597.468,323.583C597.862,323.746 598.256,323.91 598.65,324.073L603.444,325.673C603.837,325.804 604.23,325.934 604.623,326.064L606.489,326.542C607.355,328.228 607.277,328.292 607.425,328.363C621.995,335.345 601.536,326.75 591.5,326.272C587.815,326.097 589.875,324.28 591.713,321.008C593.631,321.866 595.55,322.724 597.468,323.583Z" style="fill:white;"/>
            <path d="M617.468,393.763C615.49,390.887 613.285,391.848 612.563,391.679C618.826,388.633 629.798,392.835 636.521,390.983C639.458,390.173 642.973,392.314 643.46,392.61C642.573,392.702 641.555,393.204 628.5,393.281C624.844,393.302 624.669,392.21 621.472,393.98L617.468,393.763Z" style="fill:white;"/>
            <path d="M473.246,269.561C475.041,268.393 475.377,267.167 476.018,268.556C476.907,270.483 476.758,274.063 478.503,273.929C481.962,273.663 478.142,276.3 479.39,278.547C482.556,284.246 481.341,286.563 479.587,285.36C478.667,284.729 478.641,284.927 477.616,284.459C476.791,281.842 475.965,279.225 475.139,276.609C475.015,276.217 474.89,275.824 474.766,275.432L474.076,272.602C474.201,272.138 474.844,271.934 474.969,271.47C474.969,271.47 473.582,270.587 473.461,270.51L473.246,269.561Z" style="fill:white;"/>
            <path d="M543.73,279.52C545.309,278.673 545.209,278.68 546.958,278.232C550.905,285.589 550.763,285.599 555.919,292.229C555.819,292.278 554.677,295.327 551.735,292.274C546.474,286.816 547.879,285.949 543.73,279.52Z" style="fill:white;"/>
            <path d="M697.18,304.114C698.858,306.545 699.136,306.544 698.775,309.499C698.613,310.83 696.347,310.672 696.326,311.521C696.309,312.222 696.865,312.948 696.619,313.605C696.571,313.734 696.365,312.109 694.902,313.718C692.856,315.967 691.969,312.838 689.429,314.356C687.684,315.397 687.807,314.303 686.167,313.088L688.451,311.428C689.035,310.995 689.619,310.562 690.203,310.128L693.088,308.008C693.268,308.111 695.335,309.301 695.335,309.301C695.481,309.159 695.248,309.144 694.098,307.078C695.126,306.09 696.153,305.102 697.18,304.114Z" style="fill:white;"/>
            <path d="M212.389,93.502C212.763,93.717 213.293,93.088 213.667,93.303C214.376,93.709 214.15,104.256 214.136,115.5C214.13,120.061 216.233,121.144 212.259,123.494C212.467,108.424 212.254,108.534 212.389,93.502Z" style="fill:white;"/>
            <path d="M687.572,384.698C687.138,384.635 686.897,384.055 686.464,383.992C686.464,383.992 685.556,385.321 685.477,385.437L684.595,385.761C684.198,385.902 683.801,386.043 683.404,386.184L681.585,386.771C681.187,386.915 680.789,387.059 680.391,387.204L678.591,387.788C676.552,386.738 675.415,385.851 677.529,384.981C678.522,384.573 684.876,382.573 685.518,382.371C687.105,381.871 688.579,380.363 689.337,384.096L687.572,384.698Z" style="fill:white;"/>
            <path d="M453.501,263.654C453.719,263.286 453.107,262.751 453.326,262.382C453.555,261.996 471.912,261.176 471.812,262.646C471.785,263.048 471.336,263.344 471.309,263.747C469.929,263.552 469.939,263.638 453.501,263.654Z" style="fill:white;"/>
            <path d="M576.463,384.604C574.615,377.831 579.61,383.753 586.5,384.655C588.815,384.958 587.602,385.982 586.371,387.912L585.46,387.634C582.341,382.701 581.047,385.178 580.375,385.944C579.071,385.497 577.767,385.05 576.463,384.604Z" style="fill:white;"/>
            <path d="M212.349,84.49C214.956,82.873 215.034,83.256 218.119,82.822C218.339,82.849 225.411,83.72 220.5,84.247C218.276,84.485 218.036,83.872 216.447,85.444C214.797,87.078 215.851,89.129 212.365,88.504L212.349,84.49Z" style="fill:white;"/>
            <path d="M370.5,263.643C370.72,263.265 370.047,262.731 370.266,262.353C370.54,261.883 380.601,261.891 381.5,261.892C384.046,261.894 384.267,261.731 385.5,263.638C380.5,263.639 375.5,263.641 370.5,263.643Z" style="fill:white;"/>
            <path d="M621.472,393.98C624.669,392.21 624.844,393.302 628.5,393.281C641.555,393.204 642.573,392.702 643.46,392.61L644.546,393.925C636.183,394.237 636.257,394.534 621.472,393.98Z" style="fill:white;"/>
            <path d="M564.838,302.167C560.963,304.965 560.358,303.339 557.662,299.411C556.445,297.639 557.983,298.022 559.865,297.119C561.522,298.801 563.18,300.484 564.838,302.167Z" style="fill:white;"/>
            <path d="M485.322,302.578C486.191,300.453 487.025,299.543 488.125,301.539C488.33,301.911 490.466,305.787 490.17,306.438C490.08,306.637 489.986,306.51 487.619,307.44L487.217,306.64C487.02,306.241 486.823,305.842 486.626,305.442L486.233,304.623C486.045,304.225 485.857,303.827 485.669,303.428L485.322,302.578Z" style="fill:white;"/>
            <path d="M532.908,158.262C532,155.657 531.998,155.677 531.927,155.449C531.373,153.658 533.853,152.441 534.648,155.478C535.671,159.384 536.026,159.261 536.054,159.609C536.78,168.793 533.002,158.519 532.908,158.262Z" style="fill:white;"/>
            <path d="M573.881,310.037C570.692,312.459 569.977,311.709 567.646,308.42C566.811,307.24 568.096,308.038 569.513,308.003C569.97,307.992 570.225,307.298 570.682,307.286L573.881,310.037Z" style="fill:white;"/>
            <path d="M282.502,263.632C282.503,263.547 281.197,261.948 283.5,261.863C290.812,261.594 290.73,262.48 291.498,263.627C288.499,263.629 285.501,263.63 282.502,263.632Z" style="fill:white;"/>
            <path d="M616.454,328.746C616.894,330.435 616.922,330.42 616.929,330.57C616.997,332.033 606.134,331.934 613.593,328.126L616.454,328.746Z" style="fill:white;"/>
            <path d="M345.501,263.633C345.529,263.585 344.71,262.171 346.5,261.91C350.5,261.326 351.285,260.193 353.496,263.635C350.831,263.635 348.166,263.634 345.501,263.633Z" style="fill:white;"/>
            <path d="M212.139,392.6C217.225,389.398 220.685,392.417 221.008,393.093C216.748,393.03 216.81,392.45 212.552,393.458L212.139,392.6Z" style="fill:white;"/>
            <path d="M623.462,329.777C623.93,331.56 624.315,332.263 622.5,332.378C618.082,332.658 619.78,330.428 620.524,329.294L623.462,329.777Z" style="fill:white;"/>
            <path d="M539.742,261.417C539.67,261.669 538.846,261.906 539.14,263.507C540.079,268.612 536.778,263.783 536.711,261.5C536.643,259.179 539.421,261.236 539.742,261.417Z" style="fill:white;"/>
            <path d="M218.499,81.485L218.119,82.822C215.034,83.256 214.956,82.873 212.349,84.49C213.187,80.623 214.497,81.736 218.499,81.485Z" style="fill:white;"/>
            <path d="M276.753,393.906L275.347,392.757L275.179,393.159C274.661,393.019 274.144,392.878 273.627,392.737C273.731,392.565 274.925,390.586 274.925,390.586C275.9,389.345 276.061,390.456 277.688,391.501C277.422,392.841 277.458,392.782 276.753,393.906Z" style="fill:white;"/>
            <path d="M533.242,360.823C538.582,356.294 537.902,361.385 537.646,361.636C537.458,361.821 537.408,361.569 534.361,361.686L533.242,360.823Z" style="fill:white;"/>
            <path d="M644.466,329.286C641.52,331.599 641.299,330.912 637.541,331.296L636.482,330.087C639.144,329.82 641.805,329.553 644.466,329.286Z" style="fill:white;"/>
            <path d="M739.882,313.241C736.822,313.403 736.782,313.59 736.583,313.416C733.034,310.299 738.505,311.316 738.739,311.36L739.882,313.241Z" style="fill:white;"/>
            <path d="M489.399,310.558C489.503,310.299 492.189,303.637 492.226,308.5C492.237,310.101 491.744,309.847 490.109,311.747L489.399,310.558Z" style="fill:white;"/>
            <path d="M540.246,365.909C540.426,365.77 542.498,364.169 542.498,364.169C544.197,364.126 543.353,365.031 543.25,367.896C542.249,367.233 541.247,366.571 540.246,365.909Z" style="fill:white;"/>
            <path d="M611.443,392.961L612.563,391.679C613.285,391.848 615.49,390.887 617.468,393.763L611.443,392.961Z" style="fill:white;"/>
            <path d="M544.908,274.315C544.62,274.593 544.062,274.429 543.774,274.706C542.934,275.513 544.555,275.979 543.694,276.714C543.424,276.943 539.898,276.648 543.906,272.29L544.908,274.315Z" style="fill:white;"/>
            <path d="M580.375,385.944C581.047,385.178 582.341,382.701 585.46,387.634C583.765,387.071 582.07,386.507 580.375,385.944Z" style="fill:white;"/>
            <path d="M484.049,163.292C487.639,167.712 484.856,167.892 484.486,167.896C484.2,167.898 484.185,167.784 483.448,164.478L484.049,163.292Z" style="fill:white;"/>
            <path d="M535.552,241.496C532.412,238.798 534.029,237.247 534.941,235.475L535.552,241.496Z" style="fill:white;"/>
            <path d="M573.5,311.577C573.712,311.71 580.644,316.086 574.58,314.516C572.681,314.025 572.865,313.508 573.5,311.577Z" style="fill:white;"/>
            <path d="M649.492,393.446C649.644,393.243 648.844,392.339 650.5,392.094C653.586,391.638 654.111,392.664 654.537,392.846L649.492,393.446Z" style="fill:white;"/>
            <path d="M665.5,387.671C665.699,387.684 671.633,388.05 667.5,389.155C665.853,389.596 665.553,389.311 665.5,387.671Z" style="fill:white;"/>
            <path d="M505.5,169.703C505.643,169.867 514.033,180.091 505.552,172.432C504.363,171.359 504.971,171.183 505.5,169.703Z" style="fill:white;"/>
            <path d="M539.5,361.789C543.379,363.702 539.69,364.111 539.522,364.045C538.146,363.504 538.963,363.105 539.5,361.789Z" style="fill:white;"/>
            <path d="M501.5,161.862C504.768,163.045 503.663,163.971 503.446,164.061C501.603,164.821 501.675,163.82 501.5,161.862Z" style="fill:white;"/>
            <path d="M694.098,307.078C695.248,309.144 695.481,309.159 695.335,309.301C695.335,309.301 693.268,308.111 693.088,308.008L694.098,307.078Z" style="fill:white;"/>
            <path d="M474.186,190.405C474.266,190.861 474.917,191.077 474.998,191.534C474.998,191.534 473.473,193.314 473.341,193.469C473.622,192.448 473.904,191.426 474.186,190.405Z" style="fill:white;"/>
            <path d="M473.461,270.51C473.582,270.587 474.969,271.47 474.969,271.47C474.844,271.934 474.201,272.138 474.076,272.602L473.461,270.51Z" style="fill:white;"/>
            <path d="M685.477,385.437C685.556,385.321 686.464,383.992 686.464,383.992C686.897,384.055 687.138,384.635 687.572,384.698L685.477,385.437Z" style="fill:white;"/>
            <path d="M741.854,316.282C741.457,315.65 741.06,315.019 740.664,314.388C741.06,315.019 741.457,315.65 741.854,316.282Z" style="fill:white;"/>
        </g>
        <g transform="matrix(6.208685,0,0,6.208685,-3405.899369,-6860.461083)">
            <path d="M641.423,1394.15L651.373,1394.15L653.373,1388.3L666.173,1388.3L668.173,1394.15L678.173,1394.15L665.373,1358.65L654.223,1358.65L641.423,1394.15ZM655.973,1380.7L659.823,1369.45L663.623,1380.7L655.973,1380.7Z" style="fill:white;fill-rule:nonzero;"/>
            <path d="M695.373,1394.95C704.873,1394.95 710.873,1389.55 710.873,1381.05L710.873,1358.65L701.073,1358.65L701.073,1381.05C701.073,1384.95 699.073,1387.1 695.373,1387.1C691.723,1387.1 689.723,1384.95 689.723,1381.05L689.723,1358.65L679.923,1358.65L679.923,1381.05C679.923,1389.55 685.923,1394.95 695.373,1394.95Z" style="fill:white;fill-rule:nonzero;"/>
            <path d="M724.073,1394.15L733.923,1394.15L733.923,1366.5L744.273,1366.5L744.273,1358.65L713.723,1358.65L713.723,1366.5L724.073,1366.5L724.073,1394.15Z" style="fill:white;fill-rule:nonzero;"/>
            <path d="M762.773,1394.95C774.023,1394.95 780.773,1387.85 780.773,1376.45C780.773,1365.05 774.023,1357.85 762.773,1357.85C751.523,1357.85 744.773,1365.05 744.773,1376.45C744.773,1387.85 751.523,1394.95 762.773,1394.95ZM762.773,1387.1C757.773,1387.1 754.823,1383.25 754.823,1376.45C754.823,1369.65 757.773,1365.7 762.773,1365.7C767.773,1365.7 770.723,1369.65 770.723,1376.45C770.723,1383.25 767.773,1387.1 762.773,1387.1Z" style="fill:white;fill-rule:nonzero;"/>
            <path d="M786.073,1394.15L795.873,1394.15L795.873,1374.15L802.973,1394L809.923,1394L817.073,1374.15L817.073,1394.15L826.873,1394.15L826.873,1358.65L813.973,1358.65L806.473,1381.2L798.973,1358.65L786.073,1358.65L786.073,1394.15Z" style="fill:white;fill-rule:nonzero;"/>
            <path d="M830.373,1394.15L840.323,1394.15L842.323,1388.3L855.123,1388.3L857.123,1394.15L867.123,1394.15L854.323,1358.65L843.173,1358.65L830.373,1394.15ZM844.923,1380.7L848.773,1369.45L852.573,1380.7L844.923,1380.7Z" style="fill:white;fill-rule:nonzero;"/>
            <path d="M873.573,1394.15L883.423,1394.15L883.423,1366.5L893.773,1366.5L893.773,1358.65L863.223,1358.65L863.223,1366.5L873.573,1366.5L873.573,1394.15Z" style="fill:white;fill-rule:nonzero;"/>
            <rect x="896.873" y="1358.65" width="9.8" height="35.5" style="fill:white;fill-rule:nonzero;"/>
            <path d="M928.873,1394.95C940.123,1394.95 946.873,1387.85 946.873,1376.45C946.873,1365.05 940.123,1357.85 928.873,1357.85C917.623,1357.85 910.873,1365.05 910.873,1376.45C910.873,1387.85 917.623,1394.95 928.873,1394.95ZM928.873,1387.1C923.873,1387.1 920.923,1383.25 920.923,1376.45C920.923,1369.65 923.873,1365.7 928.873,1365.7C933.873,1365.7 936.823,1369.65 936.823,1376.45C936.823,1383.25 933.873,1387.1 928.873,1387.1Z" style="fill:white;fill-rule:nonzero;"/>
            <path d="M952.173,1394.15L961.973,1394.15L961.973,1375.15L973.823,1394.15L983.723,1394.15L983.723,1358.65L973.923,1358.65L973.923,1378.65L962.073,1358.65L952.173,1358.65L952.173,1394.15Z" style="fill:white;fill-rule:nonzero;"/>
            <path d="M1004.273,1394.95C1013.473,1394.95 1018.873,1390.7 1018.873,1383.75C1018.873,1378.15 1015.473,1374.5 1004.973,1372.65C1000.373,1371.85 998.873,1370.85 998.873,1368.65C998.873,1366.8 1000.473,1365.55 1003.273,1365.55C1006.523,1365.55 1008.523,1367.5 1008.773,1370.75L1018.423,1370.35C1017.673,1363 1012.873,1357.85 1003.373,1357.85C994.373,1357.85 989.073,1362.35 989.073,1368.95C989.073,1375.5 992.973,1378.05 1002.673,1380.05C1008.073,1381.15 1009.073,1382.25 1009.073,1384.15C1009.073,1386.25 1007.373,1387.25 1004.373,1387.25C1000.573,1387.25 998.673,1385.3 998.173,1381.8L988.423,1382.25C988.923,1390.05 994.473,1394.95 1004.273,1394.95Z" style="fill:white;fill-rule:nonzero;"/>
        </g>
    </g>
</svg>
